<svg xmlns="http://www.w3.org/2000/svg" viewBox="0 0 143.12 143.87"><defs><style>.cls-1{fill:#009ee2;}.cls-2{fill:#1b416e;}.cls-3{fill:#fff;}</style></defs><title>logo-mrgoodfish</title><g id="Calque_2" data-name="Calque 2"><path class="cls-1" d="M143.12,129.58a14.13,14.13,0,0,1-13.81,14.29H13.81A14.13,14.13,0,0,1,0,129.58v-97H143.12Z"/><path class="cls-2" d="M0,14.29A14.13,14.13,0,0,1,13.81,0H129.32a14.13,14.13,0,0,1,13.81,14.29V32.6H0Z"/><polygon class="cls-3" points="16.19 9.48 21.02 9.48 24.36 18.94 24.4 18.94 27.76 9.48 32.57 9.48 32.57 23.98 29.38 23.98 29.38 12.86 29.34 12.86 25.53 23.98 23.09 23.98 19.42 12.86 19.38 12.86 19.38 23.98 16.19 23.98 16.19 9.48"/><path class="cls-3" d="M34.27,14h3.07v1.6h0a3.78,3.78,0,0,1,1.17-1.38,2.94,2.94,0,0,1,1.7-.46l.53,0a2.65,2.65,0,0,1,.49.08v2.81a4.48,4.48,0,0,0-.64-.15,4.26,4.26,0,0,0-.67-.05,3.25,3.25,0,0,0-1.39.25,1.85,1.85,0,0,0-.79.69,2.64,2.64,0,0,0-.36,1.05,10.36,10.36,0,0,0-.08,1.35V24H34.27Z"/><path class="cls-3" d="M39.92,22.22a1.91,1.91,0,0,1,.14-.74,1.8,1.8,0,0,1,1-1,2,2,0,0,1,1.47,0,1.82,1.82,0,0,1,.6.4,1.85,1.85,0,0,1,.4.6,2,2,0,0,1,0,1.47,1.85,1.85,0,0,1-.4.6,1.8,1.8,0,0,1-.6.4,2,2,0,0,1-1.47,0,1.8,1.8,0,0,1-.6-.4,1.82,1.82,0,0,1-.4-.6,1.91,1.91,0,0,1-.14-.74"/><path class="cls-3" d="M59.78,23A11.59,11.59,0,0,1,56.83,24a15.08,15.08,0,0,1-3.13.33,8.92,8.92,0,0,1-3.13-.53,7.15,7.15,0,0,1-2.48-1.52,6.92,6.92,0,0,1-1.63-2.41,8.19,8.19,0,0,1-.58-3.15,8.18,8.18,0,0,1,.58-3.15,6.9,6.9,0,0,1,1.63-2.41,7.18,7.18,0,0,1,2.48-1.53,9,9,0,0,1,3.13-.53,11.63,11.63,0,0,1,3.2.42A6.28,6.28,0,0,1,59.47,11l-2.25,2.46a4.49,4.49,0,0,0-1.47-1,5.25,5.25,0,0,0-2-.35,4.72,4.72,0,0,0-1.85.35,4.14,4.14,0,0,0-1.42,1,4.28,4.28,0,0,0-.91,1.49,5.66,5.66,0,0,0,0,3.74,4.27,4.27,0,0,0,.91,1.48,4.17,4.17,0,0,0,1.42,1,4.75,4.75,0,0,0,1.85.35,6.12,6.12,0,0,0,1.8-.23,6.94,6.94,0,0,0,1.21-.48V18.33h-2.6V15.38h5.67Z"/><path class="cls-3" d="M64,19a2.58,2.58,0,0,0,.64,1.82,2.71,2.71,0,0,0,3.63,0A2.58,2.58,0,0,0,69,19a2.58,2.58,0,0,0-.64-1.82,2.71,2.71,0,0,0-3.63,0A2.58,2.58,0,0,0,64,19M61,19a5.21,5.21,0,0,1,.43-2.15,4.93,4.93,0,0,1,1.18-1.65,5.2,5.2,0,0,1,1.76-1.05,6.52,6.52,0,0,1,4.32,0,5.2,5.2,0,0,1,1.76,1.05,5,5,0,0,1,1.18,1.65,5.6,5.6,0,0,1,0,4.3,4.94,4.94,0,0,1-1.18,1.65,5.18,5.18,0,0,1-1.76,1.05,6.52,6.52,0,0,1-4.32,0,5.18,5.18,0,0,1-1.76-1.05,4.91,4.91,0,0,1-1.18-1.65A5.21,5.21,0,0,1,61,19"/><path class="cls-3" d="M75.67,19a2.58,2.58,0,0,0,.64,1.82,2.71,2.71,0,0,0,3.63,0A2.58,2.58,0,0,0,80.59,19a2.58,2.58,0,0,0-.64-1.82,2.71,2.71,0,0,0-3.63,0A2.58,2.58,0,0,0,75.67,19M72.6,19A5.21,5.21,0,0,1,73,16.85a4.93,4.93,0,0,1,1.18-1.65A5.2,5.2,0,0,1,76,14.15a6.52,6.52,0,0,1,4.32,0,5.2,5.2,0,0,1,1.76,1.05,5,5,0,0,1,1.18,1.65,5.6,5.6,0,0,1,0,4.3,4.94,4.94,0,0,1-1.18,1.65,5.18,5.18,0,0,1-1.76,1.05,6.52,6.52,0,0,1-4.32,0,5.18,5.18,0,0,1-1.76-1.05A4.91,4.91,0,0,1,73,21.15,5.21,5.21,0,0,1,72.6,19"/><path class="cls-3" d="M92.22,19a2.58,2.58,0,0,0-.64-1.82,2.71,2.71,0,0,0-3.63,0A2.58,2.58,0,0,0,87.3,19a2.58,2.58,0,0,0,.64,1.82,2.71,2.71,0,0,0,3.63,0A2.58,2.58,0,0,0,92.22,19M95,24H92.22V22.67h0a3.39,3.39,0,0,1-.48.54,3.6,3.6,0,0,1-.7.5,4.29,4.29,0,0,1-.88.37,3.46,3.46,0,0,1-1,.14,5.11,5.11,0,0,1-2-.38,4.44,4.44,0,0,1-1.55-1.06,4.75,4.75,0,0,1-1-1.63,5.9,5.9,0,0,1-.35-2.07,6.26,6.26,0,0,1,.32-2,5.46,5.46,0,0,1,.9-1.69,4.4,4.4,0,0,1,1.42-1.18,4,4,0,0,1,1.9-.44,5.29,5.29,0,0,1,1.79.3,2.86,2.86,0,0,1,1.36,1h0V8.5H95Z"/><path class="cls-3" d="M104.26,14h3.07V24h-3.07ZM104,10.89a1.78,1.78,0,1,1,.52,1.26,1.72,1.72,0,0,1-.52-1.26m-6.31,5.59h-2V14h2V12.27a8,8,0,0,1,.14-1.55,3.13,3.13,0,0,1,.55-1.28,2.7,2.7,0,0,1,1.18-.87,5.35,5.35,0,0,1,2-.32c.31,0,.62,0,.92,0a6.38,6.38,0,0,1,.88.14l-.14,2.6a3.71,3.71,0,0,0-.49-.15,2.36,2.36,0,0,0-.51-.05,1.66,1.66,0,0,0-1.11.32,1.71,1.71,0,0,0-.37,1.3V14h2.27v2.46h-2.27V24H97.71Z"/><path class="cls-3" d="M114.32,17a2.17,2.17,0,0,0-1.78-.84,1.68,1.68,0,0,0-.76.18.65.65,0,0,0-.37.63.57.57,0,0,0,.38.54,5,5,0,0,0,1,.31l1.25.29a4.66,4.66,0,0,1,1.25.48,2.81,2.81,0,0,1,1,.89,2.66,2.66,0,0,1,.38,1.51,2.78,2.78,0,0,1-.42,1.59,3.21,3.21,0,0,1-1.08,1,4.63,4.63,0,0,1-1.47.53,8.81,8.81,0,0,1-1.62.15,7.83,7.83,0,0,1-2.11-.3,3.93,3.93,0,0,1-1.8-1.05L110,20.81a3.08,3.08,0,0,0,1,.81,2.57,2.57,0,0,0,1.22.28,2.82,2.82,0,0,0,1-.15.57.57,0,0,0,.43-.56.63.63,0,0,0-.38-.58,4.12,4.12,0,0,0-1-.33L110.93,20a5.11,5.11,0,0,1-1.25-.46,2.59,2.59,0,0,1-1-.87,2.64,2.64,0,0,1-.38-1.5,3,3,0,0,1,.36-1.52,3.16,3.16,0,0,1,.94-1A4.08,4.08,0,0,1,111,14a6.18,6.18,0,0,1,1.54-.19,7.21,7.21,0,0,1,2,.29,3.69,3.69,0,0,1,1.7,1Z"/><path class="cls-3" d="M120.38,8.5v6.88h0a1.82,1.82,0,0,1,.35-.57,2.76,2.76,0,0,1,.59-.51,3.22,3.22,0,0,1,.82-.37,3.56,3.56,0,0,1,1-.14,4.25,4.25,0,0,1,1.88.36,2.73,2.73,0,0,1,1.12,1,4,4,0,0,1,.54,1.49,11.35,11.35,0,0,1,.14,1.86V24h-3.07V19.11c0-.29,0-.58,0-.89a2.79,2.79,0,0,0-.19-.85,1.32,1.32,0,0,0-1.38-.88,1.89,1.89,0,0,0-1,.22,1.46,1.46,0,0,0-.56.57,2.34,2.34,0,0,0-.26.81,6.87,6.87,0,0,0-.06.94v5h-3.07V8.5Z"/><path class="cls-3" d="M138.15,53.46H113.63L90.87,76.22V53.46H73.41V77a35.16,35.16,0,1,0,0,22.37V123H90.87V100.25L113.63,123h24.52L103.43,88.19Z"/><path class="cls-1" d="M56.06,74a21.53,21.53,0,0,1-33.69,26.76A21.53,21.53,0,1,0,56.06,74"/><path class="cls-2" d="M18.37,84A21.19,21.19,0,0,1,32.1,67.62c9.26-3.37,18.92-.6,24.42,7a19.79,19.79,0,0,0-23.08-5.46C21,74.56,18.37,84,18.37,84Z"/><path class="cls-2" d="M73.81,87.55c-11.67-10.83-22.7-12-29.59-11.26l0,0s-.59.07-1.59.25c-.48.08-.95.17-1.38.26l0,0c-4.77,1-14.3,3.62-21.83,9.85A113.85,113.85,0,0,1,9.3,75.44c-4.65,12.8-.43,25-.43,25a51.54,51.54,0,0,1,10.25-11.3c2.05,1.74,10.94,8.77,22,10.45a.75.75,0,0,0,.17.07,29.76,29.76,0,0,0,6.64.75c15.17,0,25.79-11.67,25.91-11.81A.77.77,0,0,0,73.81,87.55Z"/><path class="cls-3" d="M62.92,85.46A2.49,2.49,0,1,1,60.42,88a2.49,2.49,0,0,1,2.5-2.49"/></g></svg>